<svg xmlns="http://www.w3.org/2000/svg" viewBox="0 0 40 50" width="40" height="50">
  <!-- Pin body -->
  <path d="M20 2C12.268 2 6 8.268 6 16c0 10 14 32 14 32s14-22 14-32C34 8.268 27.732 2 20 2z" fill="#e53e3e" stroke="#fff" stroke-width="2"/>
  <!-- Drone body center -->
  <circle cx="20" cy="16" r="5" fill="#fff" opacity="0.9"/>
  <!-- Drone arms -->
  <line x1="14" y1="11" x2="9" y2="8" stroke="#fff" stroke-width="1.5" stroke-linecap="round"/>
  <line x1="26" y1="11" x2="31" y2="8" stroke="#fff" stroke-width="1.5" stroke-linecap="round"/>
  <line x1="14" y1="21" x2="9" y2="24" stroke="#fff" stroke-width="1.5" stroke-linecap="round"/>
  <line x1="26" y1="21" x2="31" y2="24" stroke="#fff" stroke-width="1.5" stroke-linecap="round"/>
  <!-- Rotors -->
  <ellipse cx="9" cy="7.5" rx="4" ry="1.5" fill="#fff" opacity="0.7"/>
  <ellipse cx="31" cy="7.5" rx="4" ry="1.5" fill="#fff" opacity="0.7"/>
  <ellipse cx="9" cy="24.5" rx="4" ry="1.5" fill="#fff" opacity="0.7"/>
  <ellipse cx="31" cy="24.5" rx="4" ry="1.5" fill="#fff" opacity="0.7"/>
</svg>
